<svg xmlns="http://www.w3.org/2000/svg" viewBox="-26 -118 480 480" role="img" aria-label="360 Performance">
  <rect x="-26" y="-118" width="480" height="480" rx="76" fill="#0a0a0a"/>
  <polygon points="57.61,0.00 427.53,0.00 370.17,244.00 0.20,244.00" fill="#ff171a"/>
  <path d="M 145.5 36.5 L 138.5 34 L 129.25 32.5 L 114.5 32.75 L 99 36.25 L 90.25 40.5 L 84.75 44.5 L 77.75 52 L 72.5 60.5 L 67.25 73.25 L 64.5 84.5 L 64.75 86.5 L 100.5 86.5 L 101.5 85.5 L 104.5 74.75 L 107.25 69.25 L 109.75 66.75 L 113.25 65.5 L 117.75 65.5 L 121 67.75 L 122.25 71 L 122.25 76.25 L 119.25 87.5 L 114.25 93.75 L 108.5 97.25 L 104 98.5 L 98.75 98.75 L 97.5 99.75 L 90.75 130 L 91.75 130.75 L 96.5 130.75 L 99.5 131.75 L 103.5 135.25 L 105.25 140 L 105.25 148.25 L 103 159.75 L 99.5 172 L 97.75 175.75 L 94 180 L 90.25 181.75 L 86 181.75 L 83.5 180.75 L 80.75 177 L 80.75 168.5 L 85.25 150 L 85.25 145.75 L 50.25 145.75 L 49.25 146.5 L 43.25 174.25 L 42.75 188 L 45.5 199.75 L 49.75 205.75 L 55.25 210 L 65 213.75 L 72.5 214.75 L 87 214.5 L 100.75 211.75 L 111.75 206.5 L 119.25 200.5 L 128 190 L 131.75 183.5 L 136.75 171.75 L 140.5 159.25 L 143.5 143.5 L 144.25 135.5 L 144 128 L 142 122.5 L 139.25 118.75 L 134.5 115 L 134.5 114 L 143.5 108.75 L 146.75 105.75 L 151.5 98.75 L 154.25 93 L 157.75 82.25 L 160 70 L 160 57 L 157.5 48.5 L 153 42 Z
M 57.25 2 L 427.5 1.75 L 427.75 0 L 57.75 0 Z
M 255.75 35.5 L 247.5 32.5 L 241.75 31.5 L 229 31.25 L 216.5 32.75 L 206.25 36.25 L 197.25 41.75 L 189.25 49.5 L 184.25 56.5 L 178.25 69.25 L 170.25 94.25 L 157.25 149.75 L 152.5 175.75 L 152.5 189 L 154.75 197.75 L 157.75 203 L 160.25 205.75 L 166.25 210 L 177 213.5 L 183.75 214.25 L 200 214 L 210.25 211.75 L 221.75 206.25 L 229.75 199.5 L 235.75 192.25 L 241.75 182.25 L 248 167.5 L 253.75 144.25 L 255.25 130.75 L 255.25 123.5 L 254 116 L 252.25 112 L 247.5 106.5 L 244 104.25 L 239.5 102.5 L 229.75 101.25 L 218.5 102.25 L 210.75 105.75 L 205.25 110.5 L 204.5 109.5 L 213.25 72.5 L 216 67 L 219.5 64 L 224.25 62.5 L 228 62.5 L 231.75 64.75 L 232.75 71.25 L 230.25 84.5 L 230.75 85.5 L 263.5 85.75 L 264.75 85 L 269.75 63.75 L 269.75 52.5 L 268 47.5 L 264.75 42.5 L 260 38 Z
M 211 133 L 213.5 134.75 L 214.5 136.75 L 215 141.75 L 209.25 168 L 206.5 175.25 L 203.5 179.5 L 199.5 181.5 L 195.25 181.5 L 192.75 180.25 L 190.75 177.5 L 190.25 172.5 L 196.75 143.75 L 199 138.5 L 202.75 134.5 L 206.25 133 Z
M 359.25 34.75 L 348.25 31.75 L 334 31.25 L 323.5 32.5 L 313 36 L 302.75 42 L 294.5 49.75 L 289.5 56.5 L 284.25 66.5 L 279.5 80.5 L 258.5 174.5 L 258.25 184.5 L 260.25 194.75 L 262.5 199.5 L 265.75 203.75 L 270.5 208 L 277.75 211.75 L 285.5 213.75 L 296.25 214.5 L 307.5 213.75 L 316.75 211.5 L 327.75 206.5 L 335.5 200.75 L 344 191.25 L 350 180.75 L 355.25 165.25 L 373.75 84.75 L 376 72 L 376 58.5 L 373.5 49 L 368 40.75 L 362.75 36.5 Z
M 333.5 64.25 L 335.5 65.25 L 337.25 68 L 337.25 76.25 L 316.25 167.75 L 313.75 174.5 L 310 179 L 305.5 181.5 L 301.5 181.25 L 298 177.5 L 297.5 170 L 318.5 78.25 L 321.5 70.25 L 325 65.75 L 330 64 Z" fill="#ffffff" fill-rule="evenodd"/>
</svg>
